<?xml version="1.0" encoding="UTF-8"?>
<svg id="Layer_1" xmlns="http://www.w3.org/2000/svg" version="1.1" viewBox="0 0 1080 329">
  <!-- Generator: Adobe Illustrator 29.6.0, SVG Export Plug-In . SVG Version: 2.1.1 Build 207)  -->
  <defs>
    <style>
      .st0 {
        fill: #fff;
      }
    </style>
  </defs>
  <g>
    <path class="st0" d="M290.7,196.2l1.1-5.7h21.3l-.4,1.9c-.1.7,0,1.4.5,2,.5.6,1.1.9,1.8.9h39.9l-11.9-3.6,1.1-5.5c.1-.7,0-1.4-.5-2-.5-.6-1.1-.9-1.8-.9h-32.8c-2,0-3.9-.4-5.7-1.3-1.8-.9-3.2-2-4.4-3.4-1.1-1.4-2-3.1-2.5-5s-.6-3.9-.1-5.9l3.2-16.5c.6-3,2.1-5.5,4.5-7.5,2.4-2,5.1-2.9,8.2-2.9h46.8c2,0,3.9.4,5.7,1.3,1.8.9,3.2,2,4.4,3.4,1.1,1.4,2,3.1,2.5,4.9.5,1.9.6,3.8.2,5.8l-1.2,5.8h-21.3l.4-1.9c.1-.7,0-1.4-.5-2-.5-.6-1.1-.9-1.8-.9h-40.3l11.8,3.6-.8,4.2c-.1.7,0,1.4.5,2,.5.6,1.1.9,1.8.9h33.7c2,.2,3.7.8,5.3,1.7s2.9,2.1,4,3.5c1.1,1.4,1.9,3,2.3,4.8s.5,3.7.1,5.6l-3.5,17.7c-.6,3-2.1,5.5-4.5,7.5-2.4,2-5.1,2.9-8.2,2.9h-46.3c-2,0-3.9-.4-5.7-1.3-1.8-.9-3.2-2-4.4-3.4-1.1-1.4-2-3.1-2.5-5-.5-1.9-.6-3.9-.1-5.9h0Z"/>
    <path class="st0" d="M393.6,157.4l11.9,3.6-6.3,31.5c-.1.7,0,1.4.5,2,.5.6,1.1.9,1.8.9h27.8c1.2,0,2-.6,2.3-1.9l1-5.2h21.3l-2.8,14.1c-.5,2.8-1.9,5.1-4,6.9-2.2,1.8-4.7,2.6-7.5,2.6h-52.8c-1.6,0-3.1-.3-4.6-1-1.4-.7-2.6-1.6-3.5-2.8-1-1.2-1.6-2.5-2-4-.4-1.5-.4-3-.1-4.7l9.8-48.9c.5-2.8,1.9-5.1,4-6.9,2.2-1.8,4.7-2.6,7.5-2.6h51.5c1.8,0,3.5.4,5.1,1.2,1.6.8,2.9,1.8,4,3.1,1.1,1.3,1.9,2.8,2.3,4.5.5,1.7.5,3.4.1,5.3l-1.9,9.5h-21.3l.9-4.2c.1-.7,0-1.4-.5-2-.5-.6-1.1-.9-1.8-.9h-42.7,0Z"/>
    <path class="st0" d="M516.5,191.7h-25.9l-4,20.1h-21.3l14.2-70.9h68.3c1.9,0,3.6.4,5.2,1.2,1.6.8,2.9,1.8,4,3.1,1,1.3,1.8,2.8,2.3,4.5.5,1.7.5,3.4.2,5.3l-5.5,27.2c-.5,2.8-1.9,5.1-4,6.8s-4.7,2.7-7.5,2.7h-4.6l9,20.1h-21.3l-9-20.1h0ZM532,175.1c.5,0,1-.2,1.5-.5.4-.3.7-.8.9-1.3l2.5-13.1c.1-.7,0-1.4-.5-2s-1-.9-1.8-.9h-49.8l11.8,3.6-2.8,14.2h38.3Z"/>
    <path class="st0" d="M624.6,211.8h-49.1c-1.9,0-3.6-.4-5.2-1.2-1.6-.8-2.9-1.8-4-3.1-1-1.3-1.8-2.8-2.3-4.6-.5-1.7-.5-3.5-.2-5.3l11.3-56.7h21.3l-10.1,50.8-11.8,3.6h39.9c.5,0,1-.2,1.5-.6.4-.4.7-.8.9-1.4l10.5-52.5h21.3l-12.2,61.4c-.5,2.8-1.9,5.1-4.1,6.9s-4.7,2.6-7.5,2.6h0Z"/>
    <path class="st0" d="M719.3,211.8h-20l-13-56.7h-12.6l11.8,3.6-11,53.2h-21.9l14.2-70.9h38.4l7.7,43.8,21.9-43.8h40.7l-14.2,70.9h-21.8l10.6-56.7-30.8,56.7h0Z"/>
    <path class="st0" d="M846.3,211.8h-20l-13-56.7h-12.6l11.8,3.6-11,53.2h-21.9l14.2-70.9h38.4l7.7,43.8,21.9-43.8h40.7l-14.2,70.9h-21.8l10.6-56.7-30.8,56.7h0Z"/>
    <path class="st0" d="M990.4,140.9l-34.8,42.5-5.3,28.4h-23.1l4.7-24.8h12.6l-11.8-3.6-22.5-42.5h22.5l13,26,20-26h24.8Z"/>
  </g>
  <g>
    <path class="st0" d="M133.4,170.8c1-1.5,1.6-3.8,2.4-5.4,2.3-4.7,2-3.8,4.9-8.2,9.1-14,20.9-26.1,34.6-34.8,19.8-12.6,48.7-22.1,70.8-10.8,18.2,9.3,16.9,34,11.7,51.4-9.6,32.6-24.8,56.7-53.9,70.7-2.7,1.3-5.4,2.5-8.1,3.5-2.7,1.1-6.2,1.6-8.8,3.1,6.9-4,8.6-6.1,14.9-11.1,12.8-10.1,22.7-21.5,31.7-35.7,10-15.7,16.2-37.2,7.1-55.1-4.2-8.2-12.5-12.5-21-12.5,0,0-20.6-2.3-45.1,18.8,0,0,21.5-24.1,49.1-27.2,0,0-43.2-16.5-90.3,53.2h0Z"/>
    <path class="st0" d="M182.9,127.8s8.2,11.1,8.2,11.2c.8,1.1,2.1,1.5,3.4,1.5,1.1,0,2.8-.4,2.7-1.9-.1-1.5-2.3-2.5-3.4-3.2-1.7-1.2-3.5-2.4-5.2-3.6-1.3-.9-2.6-1.8-4-2.8-.5-.3-1.4-.7-1.7-1.2h0Z"/>
    <path class="st0" d="M191.9,122.8s10.2,10.5,10.2,10.5c1,1,2.4,1.3,3.8,1.1,1.1-.2,2.9-.8,2.6-2.4-.4-1.5-2.8-2.3-4-2.9-2-1-4-2-6-3-1.5-.8-3.1-1.5-4.6-2.3-.6-.3-1.6-.5-2-1h0Z"/>
    <path class="st0" d="M175.6,134.8s7.2,9.8,7.2,9.8c.7.9,1.9,1.3,2.9,1.3.9,0,2.5-.3,2.3-1.6-.1-1.3-2-2.2-2.9-2.8-1.5-1.1-3.1-2.1-4.6-3.2-1.2-.8-2.3-1.6-3.5-2.4-.4-.3-1.2-.6-1.5-1.1h0Z"/>
    <path class="st0" d="M126.8,216.5s2.2,38.1,48.9,27.9c0,0-44.4,4.9-33-36.4,0,0-11.8,25.7-15.9,8.6Z"/>
  </g>
</svg>